<svg width="308" height="88" viewBox="0 0 308 88" fill="none" xmlns="http://www.w3.org/2000/svg">
<path d="M31.0727 62.3935C30.4794 62.6555 29.8784 62.9021 29.2697 63.1255L17.7196 67.4096V22.3574L0 28.9377H10.2918V78.0813L31.8509 70.091C39.8258 67.1399 47.3537 61.546 53.2944 54.2183L31.0264 62.4783L31.0727 62.3935Z" fill="white"/>
<path d="M54.8971 4.06518C48.1474 -0.62727 38.8087 -1.2899 29.2697 2.24677L5.99848 10.8704C2.39246 12.2065 0 15.6453 0 19.4909V21.0066L17.7196 14.4441L21.1099 13.1881L31.8509 9.20455C39.1862 6.48462 45.8589 6.82364 50.6592 10.16C54.9433 13.1419 57.3011 18.366 57.3011 24.8846C57.3011 32.2353 54.3886 40.2795 49.0951 47.5224C48.4633 48.3931 47.8006 49.2329 47.1149 50.0574L59.0579 45.6269C62.741 38.8387 64.7212 31.6651 64.7212 24.8846C64.7212 15.8695 61.2308 8.47255 54.8971 4.06518Z" fill="white"/>
<path d="M39.1437 45.0937L36.7266 40.2186V45.9852V53.9045L67.555 42.4793C65.7481 47.0824 63.2655 51.5868 60.205 55.7692C53.325 65.198 44.0942 72.4 34.2108 76.0546L31.0293 77.2335V9.5127L23.6046 12.2596V50.8518L23.6016 50.8525V87.909L36.7928 83.017C48.02 78.8593 58.4644 70.7419 66.202 60.1496C71.3744 53.0716 75.0953 45.1438 76.9676 37.2244L78.5595 30.4846L39.1437 45.0937Z" fill="#F6339A"/>
<path d="M94.5596 58.1965V24.2238H110.045C113.746 24.2238 117.008 24.9356 119.833 26.3593C122.657 27.7505 124.865 29.708 126.455 32.2317C128.046 34.7553 128.841 37.7482 128.841 41.2101C128.841 44.6398 128.046 47.6326 126.455 50.1886C124.865 52.7123 122.657 54.686 119.833 56.1096C117.008 57.5008 113.746 58.1965 110.045 58.1965H94.5596ZM102.448 51.7417H109.655C111.928 51.7417 113.892 51.3211 115.547 50.4798C117.236 49.6062 118.534 48.3768 119.443 46.7914C120.385 45.206 120.855 43.3456 120.855 41.2101C120.855 39.0424 120.385 37.182 119.443 35.6289C118.534 34.0435 117.236 32.8302 115.547 31.989C113.892 31.1154 111.928 30.6786 109.655 30.6786H102.448V51.7417Z" fill="white"/>
<path d="M147.257 58.5847C144.27 58.5847 141.641 58.0023 139.368 56.8376C137.128 55.6728 135.391 54.0874 134.158 52.0814C132.924 50.043 132.307 47.7297 132.307 45.1413C132.307 42.5205 132.908 40.2071 134.109 38.2011C135.343 36.1628 137.015 34.5774 139.125 33.445C141.235 32.2802 143.621 31.6978 146.283 31.6978C148.848 31.6978 151.153 32.2478 153.198 33.3479C155.275 34.4156 156.915 35.9687 158.116 38.007C159.317 40.013 159.918 42.4235 159.918 45.2383C159.918 45.5295 159.902 45.8693 159.869 46.2575C159.837 46.6134 159.804 46.9531 159.772 47.2767H138.492V42.8602H155.779L152.857 44.1706C152.857 42.8117 152.581 41.6308 152.029 40.6278C151.477 39.6248 150.714 38.8482 149.74 38.2982C148.766 37.7158 147.63 37.4246 146.332 37.4246C145.033 37.4246 143.881 37.7158 142.874 38.2982C141.9 38.8482 141.137 39.6409 140.586 40.6763C140.034 41.6793 139.758 42.8764 139.758 44.2677V45.4325C139.758 46.8561 140.066 48.1179 140.683 49.218C141.332 50.2857 142.225 51.1107 143.361 51.6931C144.53 52.2432 145.893 52.5182 147.452 52.5182C148.848 52.5182 150.065 52.3079 151.104 51.8873C152.175 51.4667 153.149 50.8357 154.026 49.9945L158.067 54.3624C156.866 55.7213 155.357 56.7729 153.539 57.517C151.721 58.2288 149.627 58.5847 147.257 58.5847Z" fill="white"/>
<path d="M171.609 58.1965L160.604 32.0861H168.444L177.599 54.5565H173.703L183.199 32.0861H190.503L179.449 58.1965H171.609Z" fill="white"/>
<path d="M193.603 58.1965V22.1855H201.2V58.1965H193.603Z" fill="white"/>
<path d="M208.301 58.195V32.0846H215.897V58.195H208.301ZM212.099 28.4446C210.703 28.4446 209.567 28.0402 208.69 27.2313C207.814 26.4224 207.375 25.4194 207.375 24.2223C207.375 23.0252 207.814 22.0222 208.69 21.2133C209.567 20.4044 210.703 20 212.099 20C213.495 20 214.631 20.3883 215.508 21.1648C216.384 21.9089 216.822 22.8796 216.822 24.0767C216.822 25.3386 216.384 26.3901 215.508 27.2313C214.664 28.0402 213.527 28.4446 212.099 28.4446Z" fill="#F6339A"/>
<path d="M235.217 68C232.75 68 230.364 67.6926 228.059 67.0779C225.786 66.4955 223.887 65.6057 222.361 64.4086L225.38 58.973C226.484 59.8789 227.88 60.5907 229.568 61.1084C231.289 61.6584 232.977 61.9335 234.633 61.9335C237.327 61.9335 239.275 61.3349 240.476 60.1378C241.71 58.9406 242.326 57.1611 242.326 54.7992V50.8681L242.813 44.3162L242.716 37.7158V32.0861H249.923V53.8286C249.923 58.6818 248.657 62.257 246.125 64.5542C243.593 66.8514 239.957 68 235.217 68ZM234.048 56.9346C231.613 56.9346 229.406 56.417 227.426 55.3816C225.478 54.3139 223.903 52.8417 222.702 50.9652C221.533 49.0562 220.949 46.8399 220.949 44.3162C220.949 41.7602 221.533 39.5439 222.702 37.6673C223.903 35.7583 225.478 34.2862 227.426 33.2508C229.406 32.2155 231.613 31.6978 234.048 31.6978C236.256 31.6978 238.204 32.1508 239.892 33.0567C241.58 33.9303 242.895 35.3054 243.836 37.182C244.778 39.0262 245.248 41.4043 245.248 44.3162C245.248 47.1958 244.778 49.5739 243.836 51.4505C242.895 53.2947 241.58 54.6698 239.892 55.5757C238.204 56.4817 236.256 56.9346 234.048 56.9346ZM235.558 50.7225C236.889 50.7225 238.074 50.4636 239.113 49.946C240.151 49.3959 240.963 48.6356 241.547 47.6649C242.132 46.6943 242.424 45.5781 242.424 44.3162C242.424 43.022 242.132 41.9058 241.547 40.9675C240.963 39.9968 240.151 39.2527 239.113 38.735C238.074 38.185 236.889 37.91 235.558 37.91C234.227 37.91 233.042 38.185 232.003 38.735C230.964 39.2527 230.136 39.9968 229.519 40.9675C228.935 41.9058 228.643 43.022 228.643 44.3162C228.643 45.5781 228.935 46.6943 229.519 47.6649C230.136 48.6356 230.964 49.3959 232.003 49.946C233.042 50.4636 234.227 50.7225 235.558 50.7225Z" fill="white"/>
<path d="M272.917 31.6978C274.995 31.6978 276.845 32.1184 278.468 32.9597C280.124 33.7685 281.423 35.0304 282.364 36.7452C283.305 38.4276 283.776 40.5954 283.776 43.2485V58.1965H276.18V44.4133C276.18 42.3102 275.709 40.7572 274.767 39.7542C273.858 38.7512 272.56 38.2497 270.872 38.2497C269.671 38.2497 268.583 38.5085 267.609 39.0262C266.668 39.5115 265.921 40.2719 265.369 41.3072C264.85 42.3426 264.59 43.6691 264.59 45.2869V58.1965H256.993V22.1855H264.59V39.3174L262.886 37.1334C263.827 35.3863 265.174 34.0435 266.927 33.1052C268.68 32.167 270.677 31.6978 272.917 31.6978Z" fill="white"/>
<path d="M301.375 58.5847C298.291 58.5847 295.889 57.8082 294.168 56.2552C292.448 54.6698 291.587 52.3241 291.587 49.218V26.3107H299.184V49.1209C299.184 50.221 299.476 51.0784 300.06 51.6931C300.645 52.2755 301.44 52.5667 302.447 52.5667C303.648 52.5667 304.67 52.2432 305.514 51.5961L307.56 56.9346C306.78 57.4847 305.839 57.9053 304.735 58.1965C303.664 58.4553 302.544 58.5847 301.375 58.5847ZM287.546 38.4923V32.6685H305.709V38.4923H287.546Z" fill="white"/>
</svg>
